<?xml version="1.0" encoding="utf-8"?>
<!-- Generator: Adobe Illustrator 16.0.3, SVG Export Plug-In . SVG Version: 6.00 Build 0)  -->
<!DOCTYPE svg PUBLIC "-//W3C//DTD SVG 1.1//EN" "http://www.w3.org/Graphics/SVG/1.1/DTD/svg11.dtd" [
	<!ENTITY ns_extend "http://ns.adobe.com/Extensibility/1.0/">
	<!ENTITY ns_ai "http://ns.adobe.com/AdobeIllustrator/10.0/">
	<!ENTITY ns_graphs "http://ns.adobe.com/Graphs/1.0/">
	<!ENTITY ns_vars "http://ns.adobe.com/Variables/1.0/">
	<!ENTITY ns_imrep "http://ns.adobe.com/ImageReplacement/1.0/">
	<!ENTITY ns_sfw "http://ns.adobe.com/SaveForWeb/1.0/">
	<!ENTITY ns_custom "http://ns.adobe.com/GenericCustomNamespace/1.0/">
	<!ENTITY ns_adobe_xpath "http://ns.adobe.com/XPath/1.0/">
]>
<svg version="1.1" id="Layer_1" xmlns:x="&ns_extend;" xmlns:i="&ns_ai;" xmlns:graph="&ns_graphs;"
	 xmlns="http://www.w3.org/2000/svg" xmlns:xlink="http://www.w3.org/1999/xlink" x="0px" y="0px" width="80px" height="80px"
	 viewBox="0 0 80 80" enable-background="new 0 0 80 80" xml:space="preserve">
<metadata>
	<sfw  xmlns="&ns_sfw;">
		<slices></slices>
		<sliceSourceBounds  height="62.976" width="64.837" x="367.579" y="211.328" bottomLeftOrigin="true"></sliceSourceBounds>
	</sfw>
</metadata>
<g>
	<path fill="#4782BB" d="M25.254,63.938h7.296c0.708,0,1.282-0.574,1.282-1.281V45.055c0-0.71-0.574-1.282-1.282-1.282h-7.296
		c-0.708,0-1.282,0.572-1.282,1.282v17.602C23.972,63.363,24.546,63.938,25.254,63.938z M26.536,46.336h4.732v15.038h-4.732V46.336z
		"/>
	<path fill="#4782BB" d="M37.057,63.938h7.293c0.709,0,1.281-0.574,1.281-1.281V35.895c0-0.707-0.572-1.281-1.281-1.281h-7.293
		c-0.708,0-1.282,0.574-1.282,1.281v26.762C35.774,63.363,36.348,63.938,37.057,63.938z M38.338,37.178h4.73v24.196h-4.73V37.178z"
		/>
	<path fill="#4782BB" d="M48.856,63.938h7.294c0.708,0,1.283-0.574,1.283-1.281V39.912c0-0.708-0.575-1.282-1.283-1.282h-7.294
		c-0.707,0-1.282,0.573-1.282,1.282v22.744C47.574,63.363,48.149,63.938,48.856,63.938z M50.139,41.193h4.73v20.181h-4.73V41.193z"
		/>
	<path fill="#4782BB" d="M30.37,15.511h20.256c0.708,0,1.282-0.575,1.282-1.282c0-0.708-0.574-1.283-1.282-1.283H30.37
		c-0.708,0-1.282,0.575-1.282,1.283C29.088,14.936,29.662,15.511,30.37,15.511z"/>
	<path fill="#4782BB" d="M72.916,19.872c0-0.473-0.049-0.944-0.141-1.391c-0.096-0.462-0.232-0.903-0.402-1.298
		c-0.172-0.412-0.388-0.811-0.64-1.182c-0.253-0.374-0.54-0.72-0.845-1.02c-0.301-0.306-0.644-0.592-1.026-0.854
		c-0.367-0.249-0.764-0.461-1.175-0.636c-0.404-0.172-0.842-0.309-1.307-0.406c-0.459-0.093-0.926-0.14-1.391-0.14h-4.2
		c-0.708,0-1.282,0.575-1.282,1.283c0,0.707,0.574,1.282,1.282,1.282h4.2c0.294,0,0.591,0.029,0.871,0.086
		c0.295,0.063,0.571,0.148,0.824,0.256c0.263,0.111,0.513,0.247,0.736,0.396c0.238,0.165,0.456,0.345,0.658,0.548
		c0.191,0.19,0.37,0.404,0.527,0.64c0.161,0.236,0.291,0.477,0.405,0.748c0.106,0.248,0.189,0.519,0.251,0.812
		c0.057,0.283,0.087,0.577,0.087,0.875v6.486H10.643v-6.486c0-0.298,0.029-0.592,0.091-0.885c0.052-0.263,0.137-0.539,0.246-0.805
		c0.117-0.268,0.249-0.514,0.401-0.742c0.158-0.232,0.34-0.451,0.541-0.652s0.417-0.379,0.651-0.538
		c0.219-0.15,0.466-0.285,0.736-0.398c0.252-0.108,0.529-0.193,0.811-0.254c0.292-0.058,0.591-0.087,0.887-0.087h4.197
		c0.708,0,1.282-0.575,1.282-1.282c0-0.708-0.574-1.283-1.282-1.283h-4.197c-0.465,0-0.935,0.047-1.404,0.142
		c-0.457,0.095-0.893,0.232-1.296,0.403c-0.424,0.181-0.822,0.397-1.173,0.637c-0.364,0.245-0.71,0.531-1.027,0.848
		c-0.311,0.312-0.595,0.655-0.851,1.028c-0.247,0.371-0.455,0.752-0.639,1.182c-0.18,0.437-0.314,0.874-0.396,1.29
		c-0.095,0.452-0.143,0.923-0.143,1.396v7.768c0,0.032,0.007,0.062,0.009,0.093c-0.002,0.031-0.009,0.061-0.009,0.093v34.417
		c0,0.475,0.048,0.943,0.141,1.389c0.085,0.432,0.22,0.868,0.406,1.315c0.181,0.42,0.394,0.813,0.639,1.177
		c0.249,0.363,0.533,0.705,0.846,1.021c0.326,0.324,0.674,0.611,1.016,0.838c0.368,0.251,0.766,0.467,1.186,0.645
		c0.439,0.184,0.881,0.32,1.302,0.402c0.472,0.095,0.941,0.143,1.394,0.143H65.99c0.451,0,0.918-0.048,1.381-0.141
		c0.43-0.084,0.871-0.221,1.313-0.404c0.405-0.172,0.802-0.387,1.181-0.64c0.367-0.249,0.711-0.532,1.015-0.839
		c0.313-0.31,0.601-0.657,0.848-1.025c0.251-0.367,0.468-0.765,0.638-1.174c0.176-0.403,0.314-0.846,0.408-1.307
		c0.094-0.456,0.143-0.925,0.143-1.399V27.826c0-0.032-0.008-0.062-0.01-0.093c0.002-0.031,0.01-0.061,0.01-0.093V19.872z
		 M70.351,62.243c0,0.3-0.03,0.595-0.088,0.88c-0.061,0.293-0.144,0.563-0.256,0.82c-0.11,0.266-0.243,0.51-0.401,0.741
		c-0.157,0.232-0.336,0.45-0.535,0.647c-0.194,0.195-0.41,0.373-0.639,0.529c-0.237,0.158-0.488,0.294-0.74,0.401
		c-0.279,0.116-0.552,0.2-0.82,0.253c-0.304,0.063-0.601,0.094-0.881,0.094H15.007c-0.283,0-0.582-0.031-0.896-0.096
		c-0.259-0.051-0.53-0.135-0.806-0.251c-0.261-0.109-0.508-0.243-0.75-0.407c-0.217-0.145-0.431-0.322-0.634-0.523
		c-0.199-0.199-0.382-0.421-0.536-0.646c-0.151-0.227-0.289-0.479-0.401-0.738c-0.115-0.276-0.2-0.551-0.254-0.826
		c-0.06-0.283-0.088-0.578-0.088-0.878V29.108h59.708V62.243z"/>
	<path fill="#4782BB" d="M24.786,21.313c2.246,0,4.075-1.828,4.075-4.073V10.27c0-2.247-1.83-4.073-4.075-4.073
		c-2.247,0-4.073,1.827-4.073,4.073v6.971C20.713,19.486,22.54,21.313,24.786,21.313z M23.277,10.27
		c0-0.832,0.677-1.509,1.509-1.509c0.833,0,1.51,0.677,1.51,1.509v6.971c0,0.833-0.677,1.509-1.51,1.509
		c-0.832,0-1.509-0.677-1.509-1.509V10.27z"/>
	<path fill="#4782BB" d="M56.207,21.313c2.246,0,4.074-1.828,4.074-4.073V10.27c0-2.247-1.828-4.073-4.074-4.073
		s-4.072,1.827-4.072,4.073v6.971C52.135,19.486,53.961,21.313,56.207,21.313z M54.698,10.27c0-0.832,0.676-1.509,1.509-1.509
		s1.511,0.677,1.511,1.509v6.971c0,0.833-0.678,1.509-1.511,1.509s-1.509-0.677-1.509-1.509V10.27z"/>
</g>
</svg>
